<svg id="visual" viewBox="0 0 900 600" width="900" height="600" xmlns="http://www.w3.org/2000/svg" xmlns:xlink="http://www.w3.org/1999/xlink" version="1.1"><rect x="0" y="0" width="900" height="600" fill="#001220"></rect><path d="M0 368L21.5 366.8C43 365.7 86 363.3 128.8 370.5C171.7 377.7 214.3 394.3 257.2 393.7C300 393 343 375 385.8 381C428.7 387 471.3 417 514.2 432C557 447 600 447 642.8 435.8C685.7 424.7 728.3 402.3 771.2 389.2C814 376 857 372 878.5 370L900 368L900 601L878.5 601C857 601 814 601 771.2 601C728.3 601 685.7 601 642.8 601C600 601 557 601 514.2 601C471.3 601 428.7 601 385.8 601C343 601 300 601 257.2 601C214.3 601 171.7 601 128.8 601C86 601 43 601 21.5 601L0 601Z" fill="#fa7268"></path><path d="M0 405L21.5 406.8C43 408.7 86 412.3 128.8 420.5C171.7 428.7 214.3 441.3 257.2 443.3C300 445.3 343 436.7 385.8 434.7C428.7 432.7 471.3 437.3 514.2 435C557 432.7 600 423.3 642.8 426.7C685.7 430 728.3 446 771.2 453.3C814 460.7 857 459.3 878.5 458.7L900 458L900 601L878.5 601C857 601 814 601 771.2 601C728.3 601 685.7 601 642.8 601C600 601 557 601 514.2 601C471.3 601 428.7 601 385.8 601C343 601 300 601 257.2 601C214.3 601 171.7 601 128.8 601C86 601 43 601 21.5 601L0 601Z" fill="#ef5f67"></path><path d="M0 452L21.5 451.2C43 450.3 86 448.7 128.8 453.5C171.7 458.3 214.3 469.7 257.2 468.7C300 467.7 343 454.3 385.8 448C428.7 441.7 471.3 442.3 514.2 452.5C557 462.7 600 482.3 642.8 491.7C685.7 501 728.3 500 771.2 499.2C814 498.3 857 497.7 878.5 497.3L900 497L900 601L878.5 601C857 601 814 601 771.2 601C728.3 601 685.7 601 642.8 601C600 601 557 601 514.2 601C471.3 601 428.7 601 385.8 601C343 601 300 601 257.2 601C214.3 601 171.7 601 128.8 601C86 601 43 601 21.5 601L0 601Z" fill="#e34c67"></path><path d="M0 498L21.5 501.3C43 504.7 86 511.3 128.8 511.8C171.7 512.3 214.3 506.7 257.2 505.3C300 504 343 507 385.8 509.5C428.7 512 471.3 514 514.2 509.7C557 505.3 600 494.7 642.8 496C685.7 497.3 728.3 510.7 771.2 512C814 513.3 857 502.7 878.5 497.3L900 492L900 601L878.5 601C857 601 814 601 771.2 601C728.3 601 685.7 601 642.8 601C600 601 557 601 514.2 601C471.3 601 428.7 601 385.8 601C343 601 300 601 257.2 601C214.3 601 171.7 601 128.8 601C86 601 43 601 21.5 601L0 601Z" fill="#d53867"></path><path d="M0 570L21.5 565.7C43 561.3 86 552.7 128.8 545.8C171.7 539 214.3 534 257.2 536.8C300 539.7 343 550.3 385.8 555.2C428.7 560 471.3 559 514.2 559.5C557 560 600 562 642.8 564.2C685.7 566.3 728.3 568.7 771.2 567.5C814 566.3 857 561.7 878.5 559.3L900 557L900 601L878.5 601C857 601 814 601 771.2 601C728.3 601 685.7 601 642.8 601C600 601 557 601 514.2 601C471.3 601 428.7 601 385.8 601C343 601 300 601 257.2 601C214.3 601 171.7 601 128.8 601C86 601 43 601 21.5 601L0 601Z" fill="#c62368"></path></svg>